<svg width="450" height="70" viewBox="0 0 450 70" fill="none" xmlns="http://www.w3.org/2000/svg">
<path d="M0.132624 23.0095L19.7517 1.79117C20.2748 1.22649 20.9089 0.775926 21.6142 0.46771C22.3196 0.159495 23.0809 0.000275147 23.8507 2.17816e-05H76.2469C76.3288 -0.000813417 76.4091 0.0223868 76.4779 0.0667572C76.5467 0.111128 76.6009 0.174717 76.6339 0.249634C76.667 0.324551 76.6773 0.407497 76.6636 0.488208C76.6499 0.56892 76.6128 0.643846 76.5569 0.703687L74.5886 2.84422C74.1962 3.26789 73.7204 3.60589 73.1912 3.83705C72.6619 4.06822 72.0907 4.18756 71.5131 4.18758H32.403C32.1148 4.18761 31.8297 4.24707 31.5656 4.36221C31.3014 4.47735 31.0639 4.64573 30.8677 4.85681L17.7243 19.0581C17.6799 19.0966 17.6486 19.148 17.635 19.2052C17.6213 19.2623 17.626 19.3223 17.6482 19.3767C17.6705 19.4311 17.7094 19.4771 17.7592 19.5082C17.8091 19.5393 17.8674 19.554 17.9261 19.5502H42.7464C43.5161 19.5499 44.2775 19.3907 44.9829 19.0825C45.6882 18.7743 46.3223 18.3237 46.8454 17.759L52.1008 12.0756C52.3617 11.793 52.6782 11.5676 53.0305 11.4135C53.3828 11.2594 53.7632 11.1799 54.1478 11.18H65.9478C66.0296 11.1792 66.1099 11.2024 66.1787 11.2467C66.2475 11.2911 66.3018 11.3547 66.3348 11.4296C66.3678 11.5045 66.3781 11.5875 66.3644 11.6682C66.3507 11.7489 66.3136 11.8238 66.2578 11.8837L56.9526 21.9417C56.4299 22.5068 55.7959 22.9577 55.0905 23.266C54.385 23.5742 53.6235 23.7332 52.8536 23.7328H0.437713C0.352223 23.7368 0.26757 23.7145 0.195177 23.6688C0.122785 23.6232 0.0661365 23.5564 0.0328777 23.4776C-0.000381055 23.3987 -0.00865214 23.3116 0.00918471 23.2279C0.0270216 23.1442 0.0701069 23.0679 0.132624 23.0095V23.0095Z" fill="white"/>
<path d="M111.787 15.4175L118.922 7.69683C118.978 7.63729 119.015 7.56284 119.029 7.48258C119.043 7.40233 119.033 7.31976 119 7.24504C118.968 7.17032 118.915 7.10669 118.846 7.06194C118.778 7.0172 118.699 6.9933 118.617 6.99316H79.5564C78.9796 6.99327 78.4091 7.11266 77.8807 7.34384C77.3523 7.57502 76.8774 7.91299 76.4858 8.33652L62.8996 23.0299C62.844 23.0895 62.8071 23.1639 62.7932 23.2442C62.7794 23.3244 62.7892 23.407 62.8216 23.4817C62.854 23.5564 62.9075 23.6201 62.9756 23.6648C63.0436 23.7095 63.1233 23.7335 63.2047 23.7336H102.266C102.842 23.7335 103.413 23.6141 103.941 23.3829C104.47 23.1517 104.945 22.8138 105.336 22.3902L107.305 20.2497C107.359 20.1897 107.394 20.1152 107.407 20.0353C107.42 19.9554 107.409 19.8735 107.377 19.7996C107.344 19.7256 107.29 19.6628 107.222 19.6186C107.155 19.5745 107.075 19.551 106.995 19.5509H75.1228C75.0641 19.5548 75.0058 19.5401 74.9559 19.509C74.9061 19.4778 74.8672 19.4318 74.8449 19.3775C74.8226 19.3231 74.818 19.2631 74.8316 19.2059C74.8453 19.1487 74.8766 19.0973 74.921 19.0589L76.4465 17.4104C76.6421 17.1986 76.8795 17.0298 77.1438 16.9146C77.4081 16.7994 77.6934 16.7403 77.9817 16.7412H108.712C109.288 16.7437 109.858 16.6274 110.387 16.3997C110.917 16.1719 111.393 15.8376 111.787 15.4175V15.4175ZM82.8385 11.1807H107.014C107.041 11.1803 107.068 11.1878 107.09 11.2023C107.113 11.2168 107.131 11.2377 107.142 11.2623C107.153 11.2869 107.157 11.3142 107.152 11.3408C107.148 11.3674 107.136 11.3922 107.118 11.412L106.458 12.1255C106.328 12.2665 106.169 12.3791 105.993 12.4561C105.817 12.5332 105.627 12.5731 105.435 12.5733H81.254C81.2275 12.5728 81.2017 12.5646 81.1797 12.5497C81.1577 12.5348 81.1404 12.5139 81.13 12.4895C81.1196 12.4651 81.1165 12.4381 81.1211 12.412C81.1256 12.3858 81.1376 12.3615 81.1556 12.342L81.8101 11.6285C81.9399 11.4838 82.0983 11.3675 82.2753 11.2871C82.4524 11.2066 82.6441 11.1637 82.8385 11.161V11.1807Z" fill="white"/>
<path d="M206.635 15.4175L213.775 7.69685C213.831 7.63701 213.868 7.56208 213.882 7.48137C213.895 7.40066 213.885 7.31771 213.852 7.2428C213.819 7.16788 213.765 7.10429 213.696 7.05992C213.627 7.01555 213.547 6.99235 213.465 6.99319H174.409C173.831 6.99321 173.26 7.11255 172.731 7.34371C172.202 7.57488 171.726 7.91288 171.334 8.33654L157.747 23.0299C157.691 23.0898 157.654 23.1647 157.641 23.2454C157.627 23.3261 157.637 23.4091 157.67 23.484C157.703 23.5589 157.758 23.6225 157.826 23.6669C157.895 23.7112 157.975 23.7344 158.057 23.7336H197.113C197.691 23.7336 198.262 23.6142 198.791 23.3831C199.321 23.1519 199.796 22.8139 200.189 22.3902L202.157 20.2497C202.213 20.1908 202.251 20.1166 202.265 20.0364C202.279 19.9561 202.27 19.8735 202.237 19.7989C202.204 19.7242 202.15 19.6609 202.082 19.6167C202.014 19.5726 201.934 19.5497 201.852 19.551H169.975C169.918 19.553 169.86 19.5374 169.812 19.5062C169.763 19.475 169.725 19.4296 169.702 19.3763C169.68 19.3229 169.674 19.2639 169.686 19.2072C169.698 19.1505 169.727 19.0988 169.769 19.0589L171.294 17.4104C171.491 17.199 171.729 17.0304 171.994 16.9153C172.259 16.8001 172.545 16.7409 172.834 16.7412H203.564C204.14 16.7436 204.709 16.6273 205.238 16.3995C205.766 16.1718 206.242 15.8375 206.635 15.4175V15.4175ZM177.686 11.1808H201.867C201.894 11.1803 201.92 11.1878 201.943 11.2023C201.966 11.2168 201.984 11.2377 201.995 11.2623C202.006 11.2869 202.009 11.3142 202.005 11.3409C202.001 11.3675 201.988 11.3922 201.97 11.412L201.311 12.1255C201.18 12.2666 201.022 12.3791 200.846 12.4562C200.67 12.5332 200.479 12.5731 200.287 12.5733H176.107C176.08 12.5737 176.053 12.5662 176.03 12.5517C176.008 12.5372 175.99 12.5164 175.979 12.4918C175.968 12.4671 175.964 12.4398 175.969 12.4132C175.973 12.3866 175.985 12.3619 176.003 12.342L176.663 11.6285C176.792 11.4839 176.949 11.3677 177.125 11.2872C177.302 11.2068 177.493 11.1638 177.686 11.1611V11.1808Z" fill="white"/>
<path d="M252.235 8.31947L250.267 10.46C250.211 10.5198 250.174 10.5948 250.16 10.6755C250.146 10.7562 250.157 10.8391 250.19 10.9141C250.223 10.989 250.277 11.0525 250.346 11.0969C250.414 11.1413 250.495 11.1645 250.577 11.1637H279.668C279.722 11.1641 279.775 11.1801 279.82 11.2098C279.865 11.2394 279.9 11.2814 279.922 11.3307C279.944 11.3801 279.951 11.4346 279.943 11.4879C279.934 11.5412 279.911 11.5909 279.875 11.6311L278.349 13.2796C278.151 13.4911 277.91 13.6593 277.644 13.7737C277.377 13.888 277.09 13.9459 276.799 13.9439H246.069C245.492 13.944 244.922 14.0634 244.393 14.2946C243.865 14.5258 243.39 14.8637 242.999 15.2873L235.859 23.0129C235.803 23.0727 235.766 23.1476 235.752 23.2283C235.738 23.309 235.749 23.392 235.782 23.4669C235.815 23.5418 235.869 23.6054 235.938 23.6498C236.006 23.6942 236.087 23.7174 236.169 23.7165H275.225C275.802 23.7165 276.373 23.5972 276.903 23.366C277.432 23.1348 277.908 22.7968 278.3 22.3732L291.886 7.67976C291.942 7.61992 291.979 7.54501 291.993 7.4643C292.007 7.38359 291.996 7.30062 291.963 7.22571C291.93 7.15079 291.876 7.0872 291.807 7.04283C291.739 6.99846 291.658 6.97526 291.576 6.9761H255.31C254.733 6.97612 254.162 7.09546 253.632 7.32662C253.103 7.55779 252.627 7.8958 252.235 8.31947ZM271.947 19.5339H247.767C247.74 19.533 247.714 19.5246 247.691 19.5095C247.669 19.4943 247.651 19.4732 247.641 19.4484C247.63 19.4237 247.626 19.3964 247.63 19.3697C247.634 19.343 247.646 19.3181 247.664 19.2977L248.323 18.5842C248.454 18.4431 248.612 18.3306 248.788 18.2536C248.964 18.1765 249.154 18.1366 249.346 18.1364H273.527C273.554 18.1372 273.58 18.1457 273.603 18.1608C273.625 18.1759 273.643 18.1971 273.653 18.2218C273.664 18.2466 273.668 18.2738 273.664 18.3005C273.66 18.3272 273.648 18.3522 273.63 18.3726L272.971 19.0861C272.84 19.2271 272.682 19.3397 272.506 19.4167C272.33 19.4938 272.14 19.5336 271.947 19.5339V19.5339Z" fill="white"/>
<path d="M110.322 23.0128L123.913 8.31945C124.304 7.89592 124.779 7.55795 125.307 7.32677C125.836 7.09558 126.406 6.97618 126.983 6.97607H166.044C166.126 6.97621 166.205 7.00011 166.273 7.04485C166.341 7.0896 166.395 7.15323 166.427 7.22795C166.46 7.30267 166.47 7.38524 166.456 7.46549C166.442 7.54575 166.405 7.6202 166.349 7.67974L152.763 22.3731C152.371 22.797 151.895 23.1352 151.366 23.3664C150.837 23.5976 150.265 23.7168 149.688 23.7165H144.107C144.026 23.7164 143.946 23.6925 143.878 23.6477C143.81 23.603 143.757 23.5393 143.724 23.4646C143.692 23.3899 143.682 23.3073 143.696 23.2271C143.71 23.1468 143.747 23.0724 143.802 23.0128L154.328 11.6311C154.364 11.5909 154.387 11.5412 154.396 11.4879C154.404 11.4346 154.397 11.38 154.375 11.3307C154.354 11.2814 154.318 11.2394 154.273 11.2097C154.228 11.1801 154.175 11.1641 154.121 11.1636H147.306C147.018 11.1628 146.732 11.2218 146.468 11.337C146.204 11.4522 145.966 11.6211 145.771 11.8329L136.023 22.3731C135.631 22.7967 135.156 23.1346 134.628 23.3658C134.099 23.597 133.529 23.7164 132.952 23.7165H127.367C127.286 23.7164 127.206 23.6925 127.138 23.6477C127.07 23.603 127.016 23.5393 126.984 23.4646C126.952 23.3899 126.942 23.3073 126.956 23.2271C126.969 23.1468 127.006 23.0724 127.062 23.0128L137.587 11.6311C137.625 11.592 137.651 11.5425 137.661 11.4889C137.671 11.4353 137.664 11.38 137.643 11.33C137.621 11.28 137.585 11.2374 137.539 11.2078C137.494 11.1782 137.44 11.1628 137.386 11.1636H130.566C130.277 11.1637 129.992 11.2231 129.728 11.3383C129.464 11.4534 129.226 11.6218 129.03 11.8329L119.287 22.3731C118.895 22.7968 118.419 23.1348 117.89 23.366C117.36 23.5971 116.789 23.7165 116.212 23.7165H110.632C110.55 23.7173 110.469 23.6941 110.401 23.6498C110.332 23.6054 110.277 23.5418 110.244 23.4669C110.211 23.392 110.201 23.309 110.215 23.2283C110.229 23.1476 110.266 23.0727 110.322 23.0128V23.0128Z" fill="white"/>
<path d="M205.175 23.0133L218.761 8.31996C219.153 7.89606 219.629 7.55788 220.158 7.32669C220.688 7.0955 221.259 6.97631 221.837 6.97658H246.933C247.014 6.97575 247.095 6.99895 247.164 7.04332C247.232 7.08769 247.287 7.15128 247.32 7.2262C247.353 7.30111 247.363 7.38407 247.349 7.46479C247.336 7.5455 247.298 7.62041 247.243 7.68025L245.274 9.82078C244.883 10.2443 244.408 10.5823 243.879 10.8135C243.351 11.0446 242.78 11.164 242.204 11.1642H225.419C225.131 11.1633 224.845 11.2223 224.581 11.3375C224.317 11.4527 224.079 11.6216 223.884 11.8334L214.136 22.3736C213.744 22.7972 213.269 23.1351 212.741 23.3663C212.212 23.5975 211.642 23.7169 211.065 23.717H205.48C205.399 23.7169 205.319 23.693 205.251 23.6482C205.183 23.6035 205.129 23.5398 205.097 23.4651C205.065 23.3904 205.055 23.3079 205.069 23.2276C205.082 23.1473 205.119 23.0729 205.175 23.0133V23.0133Z" fill="white"/>
</svg>
